<svg xmlns="http://www.w3.org/2000/svg" width="1400" height="700" viewBox="0 0 1400 700" fill="none">
  <rect width="1400" height="700" rx="32" fill="#0b1220"/>
  <text x="120" y="86" fill="#f8fafc" font-size="42" font-family="Segoe UI, Arial, sans-serif" font-weight="700">Profile Trade-off Snapshot</text>
  <text x="120" y="122" fill="#94a3b8" font-size="22" font-family="Segoe UI, Arial, sans-serif">Representative local runs. Higher protection usually costs more visible change.</text>
  <text x="120" y="181" fill="#e5e7eb" font-size="28" font-family="Segoe UI, Arial, sans-serif" font-weight="600">Balanced</text><rect x="120" y="196" width="760" height="72" rx="18" fill="#1f2937" /><rect x="120" y="196" width="523.5" height="72" rx="18" fill="#3b82f6" /><text x="904" y="240" fill="#f8fafc" font-size="24" font-family="Segoe UI, Arial, sans-serif" font-weight="700">42.1 / 100</text><text x="1080" y="226" fill="#cbd5e1" font-size="20" font-family="Segoe UI, Arial, sans-serif">PSNR</text><text x="1160" y="226" fill="#f8fafc" font-size="20" font-family="Segoe UI, Arial, sans-serif">36.24 dB</text><text x="1080" y="256" fill="#cbd5e1" font-size="20" font-family="Segoe UI, Arial, sans-serif">SSIM</text><text x="1160" y="256" fill="#f8fafc" font-size="20" font-family="Segoe UI, Arial, sans-serif">0.9346</text><text x="120" y="297" fill="#e5e7eb" font-size="28" font-family="Segoe UI, Arial, sans-serif" font-weight="600">Subject</text><rect x="120" y="312" width="760" height="72" rx="18" fill="#1f2937" /><rect x="120" y="312" width="640.4" height="72" rx="18" fill="#14b8a6" /><text x="904" y="356" fill="#f8fafc" font-size="24" font-family="Segoe UI, Arial, sans-serif" font-weight="700">51.5 / 100</text><text x="1080" y="342" fill="#cbd5e1" font-size="20" font-family="Segoe UI, Arial, sans-serif">PSNR</text><text x="1160" y="342" fill="#f8fafc" font-size="20" font-family="Segoe UI, Arial, sans-serif">30.53 dB</text><text x="1080" y="372" fill="#cbd5e1" font-size="20" font-family="Segoe UI, Arial, sans-serif">SSIM</text><text x="1160" y="372" fill="#f8fafc" font-size="20" font-family="Segoe UI, Arial, sans-serif">0.8270</text><text x="120" y="413" fill="#e5e7eb" font-size="28" font-family="Segoe UI, Arial, sans-serif" font-weight="600">Fortress</text><rect x="120" y="428" width="760" height="72" rx="18" fill="#1f2937" /><rect x="120" y="428" width="661.2" height="72" rx="18" fill="#f59e0b" /><text x="904" y="472" fill="#f8fafc" font-size="24" font-family="Segoe UI, Arial, sans-serif" font-weight="700">53.2 / 100</text><text x="1080" y="458" fill="#cbd5e1" font-size="20" font-family="Segoe UI, Arial, sans-serif">PSNR</text><text x="1160" y="458" fill="#f8fafc" font-size="20" font-family="Segoe UI, Arial, sans-serif">29.08 dB</text><text x="1080" y="488" fill="#cbd5e1" font-size="20" font-family="Segoe UI, Arial, sans-serif">SSIM</text><text x="1160" y="488" fill="#f8fafc" font-size="20" font-family="Segoe UI, Arial, sans-serif">0.7858</text><text x="120" y="529" fill="#e5e7eb" font-size="28" font-family="Segoe UI, Arial, sans-serif" font-weight="600">Blindfold</text><rect x="120" y="544" width="760" height="72" rx="18" fill="#1f2937" /><rect x="120" y="544" width="760.0" height="72" rx="18" fill="#ef4444" /><text x="904" y="588" fill="#f8fafc" font-size="24" font-family="Segoe UI, Arial, sans-serif" font-weight="700">61.1 / 100</text><text x="1080" y="574" fill="#cbd5e1" font-size="20" font-family="Segoe UI, Arial, sans-serif">PSNR</text><text x="1160" y="574" fill="#f8fafc" font-size="20" font-family="Segoe UI, Arial, sans-serif">26.53 dB</text><text x="1080" y="604" fill="#cbd5e1" font-size="20" font-family="Segoe UI, Arial, sans-serif">SSIM</text><text x="1160" y="604" fill="#f8fafc" font-size="20" font-family="Segoe UI, Arial, sans-serif">0.6114</text>
</svg>